<svg xmlns="http://www.w3.org/2000/svg" viewBox="0 0 24 24"><path d="M19 0H5C2.2 0 0 2.2 0 5v14c0 2.8 2.2 5 5 5h14c2.8 0 5-2.2 5-5V5c0-2.8-2.2-5-5-5zm.2 17h-2.1c-1.2 0-1.4-.7-2.4-1.7-.9-.9-1.4-.2-1.4 1.1 0 .3-.2.6-.6.6-1.3 0-3.1.2-4.9-1.8C6 13.2 4 9.1 4 8.7c0-.2.2-.3.5-.3h2.2c.6 0 .6.3.8.6.7 1.5 2.3 4.6 2.7 2.9.2-1 .3-3.2-.7-3.4-.6-.1.5-.7 2-.7.4 0 .8 0 1.2.1.8.2.8.5.8 1 0 1.9-.3 3.2.2 3.5.5.3 1.7-1.7 2.4-3.3.2-.4.2-.7.7-.7h2.7c1.4 0-.2 2-1.4 3.6-1 1.3-.9 1.3.2 2.3.8.7 1.7 1.7 1.7 2.2 0 .3-.2.5-.8.5z" fill="#4c75a3"/></svg>